<?xml version="1.0" standalone="no"?>
<!DOCTYPE svg PUBLIC "-//W3C//DTD SVG 20010904//EN"
 "http://www.w3.org/TR/2001/REC-SVG-20010904/DTD/svg10.dtd">
<svg version="1.0" xmlns="http://www.w3.org/2000/svg"
 width="132.000000pt" height="132.000000pt" viewBox="0 0 132.000000 132.000000"
 preserveAspectRatio="xMidYMid meet">
<metadata>
Created by potrace 1.14, written by Peter Selinger 2001-2017
</metadata>
<g transform="translate(0.000000,132.000000) scale(0.100000,-0.100000)"
fill="#000000" stroke="none">
<path d="M570 1169 c-25 -5 -78 -25 -119 -45 -170 -84 -281 -263 -281 -454 0
-279 232 -510 511 -510 212 0 410 144 481 350 31 89 31 238 -1 325 -88 245
-334 384 -591 334z m137 -334 l1 -140 141 -3 141 -3 0 -29 0 -30 -175 0 -175
0 0 176 0 175 33 -3 32 -3 2 -140z m-197 -100 l0 -225 230 0 230 0 0 -35 0
-35 -260 0 -260 0 0 260 0 260 30 0 30 0 0 -225z"/>
</g>
</svg>
